<svg xmlns="http://www.w3.org/2000/svg" fill="none" viewBox="-0.5 -0.5 24 24" id="Hono--Streamline-Svg-Logos.svg" height="24" width="24"><desc>Hono Streamline Icon: https://streamlinehq.com</desc><path fill="#FF5B11" d="M11.9183125 0.24153114583333335c0.05977604166666667 -0.007687270833333334 0.11255625 0.007386354166666667 0.15826874999999999 0.04522135416666667 1.681946875 2.0527739583333333 3.26470625 4.1781943749999995 4.748278125 6.376251666666667 1.09839375 1.6537239583333334 2.0329364583333334 3.4022510416666667 2.803747916666667 5.245725 1.2309791666666667 3.2832739583333335 0.5903333333333334 6.1398020833333335 -1.9219135416666668 8.5695125 -2.1981531249999997 1.8578010416666666 -4.730548958333334 2.5813427083333336 -7.597259375 2.1706489583333335 -3.42656875 -0.6986489583333334 -5.755510416666667 -2.680841666666667 -6.986753125 -5.946673958333334 -0.32070625 -1.0631989583333334 -0.42621875 -2.1485114583333336 -0.31653749999999997 -3.255961458333333 0.18261041666666666 -1.9062208333333335 0.6348239583333334 -3.7452625000000004 1.356640625 -5.517029166666667 0.3007729166666667 -0.7229187499999999 0.6927072916666668 -1.3861333333333332 1.1757791666666668 -1.9897635416666666 0.394090625 0.4693916666666667 0.7709312500000001 0.9517927083333334 1.1305218750000001 1.4471072916666667 0.16651041666666666 0.17405729166666667 0.3398489583333334 0.3398729166666667 0.5200635416666667 0.4974229166666667C8.364644791666667 5.154228125 10.00773125 2.6067625 11.9183125 0.24153114583333335Z" opacity=".993" stroke-width="1"></path><path fill="#FF9758" d="M11.601822916666666 3.9044895833333335c1.65930625 1.924644791666667 3.159169791666667 3.9746875 4.499542708333333 6.150152083333334 0.420253125 0.7198520833333334 0.7669302083333334 1.4735572916666668 1.0401031250000001 2.2610916666666667 0.5690822916666667 2.238834375 -0.04142395833333334 4.0854229166666665 -1.8314708333333334 5.539645833333333 -1.7312770833333335 1.2182333333333335 -3.6305739583333336 1.5800041666666669 -5.697938541666667 1.0853364583333334 -2.229394791666667 -0.6917968750000001 -3.518209375 -2.191684375 -3.866467708333334 -4.4995666666666665 -0.08450104166666668 -0.7276625 -0.009128125 -1.4361583333333334 0.22611875 -2.125415625 0.33546458333333334 -0.8518385416666667 0.7424447916666667 -1.6658229166666667 1.2209885416666668 -2.4419770833333336 0.45221354166666666 -0.6632625000000001 0.9044270833333333 -1.3264770833333335 1.356640625 -1.9897395833333333 1.0272614583333335 -1.3209427083333334 2.0447479166666667 -2.647419791666667 3.0524833333333334 -3.979527083333333Z" stroke-width="1"></path></svg>